<svg version="1.1" xmlns="http://www.w3.org/2000/svg" xmlns:xlink="http://www.w3.org/1999/xlink" width="500" height="500"><g data-paper-data="{&quot;description&quot;:&quot;Logo for Icount\n===============\n\nThis logo was generated by MarkMaker at http://emblemmatic.org/markmaker/ and may be composed of elements designed by others.\n\nThe font is Roboto Mono Medium designed by Christian Robertson and released under the APACHE2 license via Google Fonts: https://www.google.com/fonts/specimen/Roboto%20Mono. The font includes this copyright statement: Copyright 2015 Google Inc. All Rights Reserved.\n\nMarkMaker uses semantic data from the Princeton University WordNet database http://wordnet.princeton.edu and font descriptions from Google Fonts https://www.google.com/fonts.&quot;}" fill="none" fill-rule="nonzero" stroke="none" stroke-width="none" stroke-linecap="butt" stroke-linejoin="miter" stroke-miterlimit="10" stroke-dasharray="" stroke-dashoffset="0" font-family="none" font-weight="none" font-size="none" text-anchor="none" style="mix-blend-mode: normal"><path d="M50,283.96647v-67.93293h44.99312v67.93293z" fill="none" stroke="#19ce60" stroke-width="3.5"></path><g data-paper-data="{&quot;elementType&quot;:&quot;logo&quot;}" fill="#19ce60" stroke="none" stroke-width="1"><g data-paper-data="{&quot;elementType&quot;:&quot;text&quot;}"><g data-paper-data="{&quot;baseline&quot;:72.802734375,&quot;elementType&quot;:&quot;row&quot;}"><g data-paper-data="{&quot;baselineProportion&quot;:0.9861111111111112,&quot;fontSize&quot;:100,&quot;baseline&quot;:72.802734375,&quot;elementType&quot;:&quot;word&quot;}"><path d="M131.03872,237.00798h21.60345v33.09783h12.01856v7.41332h-33.62201v-7.41332h12.58017v-25.64708h-12.58017v-7.45076M142.87007,226.5245c0,-1.3978 0.44929,-2.55223 1.34788,-3.46329c0.89858,-0.91106 2.1591,-1.3666 3.78154,-1.3666c1.6474,0 2.92664,0.45553 3.8377,1.3666c0.91106,0.91106 1.3666,2.06549 1.3666,3.46329c0,1.3978 -0.45553,2.55223 -1.3666,3.46329c-0.91106,0.91106 -2.1903,1.3666 -3.8377,1.3666c-1.62244,0 -2.88296,-0.45553 -3.78154,-1.3666c-0.89858,-0.91106 -1.34788,-2.06549 -1.34788,-3.46329z" data-paper-data="{&quot;elementType&quot;:&quot;letter&quot;,&quot;baseline&quot;:72.802734375,&quot;baselineProportion&quot;:1,&quot;fontSize&quot;:100}"></path><path d="M204.0115,271.15416c1.09827,0 2.16534,-0.17472 3.2012,-0.52417c1.03587,-0.34945 1.95317,-0.83618 2.75191,-1.4602c0.79874,-0.62402 1.429,-1.36036 1.89077,-2.20902c0.46177,-0.84866 0.68018,-1.77221 0.65522,-2.77063h8.46166c0.02496,1.94693 -0.41809,3.7753 -1.32916,5.4851c-0.91106,1.70981 -2.14662,3.2012 -3.70666,4.4742c-1.56004,1.27299 -3.36345,2.2839 -5.41022,3.03272c-2.04677,0.74882 -4.19339,1.12323 -6.43985,1.12323c-3.12008,0 -5.85327,-0.53665 -8.19958,-1.60996c-2.3463,-1.07331 -4.30571,-2.53975 -5.87824,-4.39932c-1.57252,-1.85957 -2.75191,-4.01867 -3.53817,-6.47729c-0.78626,-2.45862 -1.17939,-5.07325 -1.17939,-7.84389v-1.34788c0,-2.77063 0.39313,-5.3915 1.17939,-7.86261c0.78626,-2.47111 1.96565,-4.6302 3.53817,-6.47729c1.57252,-1.84709 3.53193,-3.31353 5.87824,-4.39932c2.3463,-1.08579 5.06701,-1.62868 8.16214,-1.62868c2.44614,0 4.71132,0.37441 6.79554,1.12323c2.08422,0.74882 3.88138,1.79717 5.3915,3.14504c1.51012,1.34788 2.68327,2.95784 3.51945,4.82989c0.83618,1.87205 1.24179,3.91882 1.21683,6.14032h-8.46166c0.02496,-1.09827 -0.16848,-2.13414 -0.58034,-3.1076c-0.41185,-0.97347 -1.00467,-1.82213 -1.77845,-2.54599c-0.77378,-0.72386 -1.68484,-1.29795 -2.73319,-1.72229c-1.04835,-0.42433 -2.19654,-0.6365 -3.44457,-0.6365c-1.87205,0 -3.43209,0.38065 -4.68012,1.14195c-1.24803,0.7613 -2.24646,1.75973 -2.99528,2.99528c-0.74882,1.23555 -1.27923,2.63959 -1.59124,4.21211c-0.31201,1.57252 -0.46801,3.17 -0.46801,4.79245v1.34788c0,1.6474 0.156,3.25737 0.46801,4.82989c0.31201,1.57252 0.84242,2.97656 1.59124,4.21211c0.74882,1.23555 1.74725,2.23398 2.99528,2.99528c1.24803,0.7613 2.82055,1.14195 4.71756,1.14195z" data-paper-data="{&quot;elementType&quot;:&quot;letter&quot;,&quot;baseline&quot;:53.80859375,&quot;baselineProportion&quot;:0.981300089047195,&quot;fontSize&quot;:100}"></path><path d="M241.86464,256.88914c0,-2.9204 0.43057,-5.64111 1.29171,-8.16214c0.86114,-2.52103 2.0967,-4.70508 3.70666,-6.55217c1.60996,-1.84709 3.57561,-3.29481 5.89696,-4.34315c2.32134,-1.04835 4.95469,-1.57252 7.90005,-1.57252c2.97032,0 5.62239,0.52417 7.95621,1.57252c2.33382,1.04835 4.30571,2.49607 5.91568,4.34315c1.60996,1.84709 2.83928,4.03115 3.68794,6.55217c0.84866,2.52103 1.27299,5.24174 1.27299,8.16214v0.78626c0,2.94536 -0.42433,5.67855 -1.27299,8.19958c-0.84866,2.52103 -2.07797,4.69884 -3.68794,6.53345c-1.60996,1.83461 -3.57561,3.27609 -5.89696,4.32443c-2.32134,1.04835 -4.95469,1.57252 -7.90005,1.57252c-2.97032,0 -5.62239,-0.52417 -7.95621,-1.57252c-2.33382,-1.04835 -4.30571,-2.48983 -5.91568,-4.32443c-1.60996,-1.83461 -2.84552,-4.01243 -3.70666,-6.53345c-0.86114,-2.52103 -1.29171,-5.25422 -1.29171,-8.19958v-0.78626M250.81304,257.6754c0,1.84709 0.19345,3.58185 0.58034,5.2043c0.38689,1.62244 0.98595,3.05144 1.79717,4.28699c0.81122,1.23555 1.84085,2.20902 3.08888,2.9204c1.24803,0.71138 2.73319,1.06707 4.45548,1.06707c1.67236,0 3.12632,-0.35569 4.36188,-1.06707c1.23555,-0.71138 2.25894,-1.68484 3.07016,-2.9204c0.81122,-1.23555 1.41028,-2.66455 1.79717,-4.28699c0.38689,-1.62244 0.58034,-3.35721 0.58034,-5.2043v-0.78626c0,-1.79717 -0.19345,-3.50697 -0.58034,-5.12942c-0.38689,-1.62244 -0.98595,-3.0452 -1.79717,-4.26827c-0.81122,-1.22307 -1.83461,-2.19654 -3.07016,-2.9204c-1.23555,-0.72386 -2.71447,-1.08579 -4.43676,-1.08579c-1.69732,0 -3.17,0.36193 -4.41804,1.08579c-1.24803,0.72386 -2.27142,1.69732 -3.07016,2.9204c-0.79874,1.22307 -1.39156,2.64583 -1.77845,4.26827c-0.38689,1.62244 -0.58034,3.33225 -0.58034,5.12942z" data-paper-data="{&quot;elementType&quot;:&quot;letter&quot;,&quot;baseline&quot;:53.80859375,&quot;baselineProportion&quot;:0.981300089047195,&quot;fontSize&quot;:100}"></path><path d="M326.70622,271.97786c-1.37284,1.99685 -3.03896,3.55065 -4.99837,4.6614c-1.95941,1.11075 -4.14971,1.66612 -6.57089,1.66612c-2.0967,0 -4.01243,-0.32449 -5.74719,-0.97347c-1.73477,-0.64898 -3.21993,-1.6786 -4.45548,-3.08888c-1.23555,-1.41028 -2.19654,-3.20744 -2.88296,-5.3915c-0.68642,-2.18406 -1.02963,-4.81117 -1.02963,-7.88133v-23.96223h8.9484v24.03711c0,1.94693 0.14352,3.55689 0.43057,4.82989c0.28705,1.27299 0.7301,2.2839 1.32916,3.03272c0.59906,0.74882 1.34788,1.27923 2.24646,1.59124c0.89858,0.31201 1.97189,0.46801 3.21993,0.46801c2.39622,0 4.33067,-0.46801 5.80335,-1.40404c1.47268,-0.93602 2.58343,-2.20278 3.33225,-3.80026v-28.75468h8.98584v40.51115h-8.08725z" data-paper-data="{&quot;elementType&quot;:&quot;letter&quot;,&quot;baseline&quot;:52.83203125,&quot;baselineProportion&quot;:0.9809610154125114,&quot;fontSize&quot;:100}"></path><path d="M366.01956,237.00798l0.56161,5.61615c1.47268,-2.02181 3.25113,-3.58809 5.33534,-4.69884c2.08422,-1.11075 4.39932,-1.66612 6.9453,-1.66612c2.07173,0 3.9625,0.29953 5.67231,0.89858c1.70981,0.59906 3.18248,1.53508 4.41804,2.80807c1.23555,1.27299 2.19654,2.9204 2.88296,4.94221c0.68642,2.02181 1.02963,4.45548 1.02963,7.30099v25.31011h-8.9484v-25.16034c0,-1.67236 -0.19345,-3.07016 -0.58034,-4.19339c-0.38689,-1.12323 -0.93602,-2.02181 -1.6474,-2.69575c-0.71138,-0.67394 -1.57876,-1.15443 -2.60215,-1.44148c-1.02339,-0.28705 -2.18406,-0.43057 -3.48201,-0.43057c-1.97189,0 -3.68794,0.43681 -5.14814,1.31043c-1.4602,0.87362 -2.63959,2.05925 -3.53817,3.55689v29.05421h-8.98584v-40.51115z" data-paper-data="{&quot;elementType&quot;:&quot;letter&quot;,&quot;baseline&quot;:53.80859375,&quot;baselineProportion&quot;:1,&quot;fontSize&quot;:100}"></path><path d="M433.07667,227.19844v9.80954h15.31336v6.6645h-15.31336v19.43187c0,1.5226 0.18096,2.78311 0.54289,3.78154c0.36193,0.99843 0.86738,1.79717 1.51636,2.39622c0.64898,0.59906 1.41028,1.01715 2.2839,1.25427c0.87362,0.23713 1.83461,0.35569 2.88296,0.35569c0.77378,0 1.57876,-0.04368 2.41494,-0.13104c0.83618,-0.08736 1.6474,-0.1872 2.43366,-0.29953c0.78626,-0.11232 1.51012,-0.23713 2.17158,-0.37441c0.66146,-0.13728 1.21683,-0.26833 1.66612,-0.39313l1.01091,6.17776c-0.64898,0.37441 -1.429,0.71762 -2.34006,1.02963c-0.91106,0.31201 -1.90325,0.56786 -2.97656,0.76754c-1.07331,0.19969 -2.1903,0.35569 -3.35097,0.46801c-1.16067,0.11232 -2.30262,0.16848 -3.42585,0.16848c-2.02181,0 -3.87514,-0.28081 -5.55999,-0.84242c-1.68484,-0.56161 -3.13256,-1.43524 -4.34315,-2.62087c-1.21059,-1.18563 -2.1591,-2.70823 -2.84552,-4.5678c-0.68642,-1.85957 -1.02963,-4.08731 -1.02963,-6.68322v-19.91861h-9.88442v-6.6645h9.88442v-9.80954z" data-paper-data="{&quot;elementType&quot;:&quot;letter&quot;,&quot;baseline&quot;:65.625,&quot;baselineProportion&quot;:0.9846153846153847,&quot;fontSize&quot;:100}"></path></g></g></g></g><g data-paper-data="{&quot;elementType&quot;:&quot;emblem&quot;}" fill="#19ce60" stroke="none" stroke-width="1"><g data-paper-data="{&quot;baselineProportion&quot;:1,&quot;fontSize&quot;:100,&quot;baseline&quot;:71.09375,&quot;elementType&quot;:&quot;word&quot;}"><path d="M60.37501,229.62012h24.2431v5.57087h-8.81822v29.64601h8.81822v5.54288h-24.2431v-5.54288h8.62226v-29.64601h-8.62226z" data-paper-data="{&quot;elementType&quot;:&quot;letter&quot;,&quot;baseline&quot;:71.09375,&quot;baselineProportion&quot;:1,&quot;fontSize&quot;:100}"></path></g></g></g></svg>